<svg width="283.46px" height="283.46px" viewBox="0 0 283.46 283.46" fill="none" xmlns="http://www.w3.org/2000/svg">
<path fill="#008B8B" d="M283.464,272.12c0,6.236-5.104,11.341-11.343,11.341h-96.369c-6.24,0-11.343-5.104-11.343-11.341v-96.371 c0-6.241,5.103-11.346,11.343-11.346h96.369c6.238,0,11.343,5.104,11.343,11.346V272.12z"/>
<path fill="#5EE8BF" d="M283.464,107.712c0,6.237-5.104,11.341-11.343,11.341h-96.369c-6.24,0-11.343-5.104-11.343-11.341V11.341 c0-6.241,5.103-11.345,11.343-11.345h96.369c6.238,0,11.343,5.104,11.343,11.345V107.712z"/>
<path fill="#008B8B" d="M119.055,272.121c0,6.235-5.106,11.34-11.343,11.34H11.343C5.104,283.46,0,278.356,0,272.121v-96.37 c0-6.241,5.104-11.346,11.343-11.346h96.367c6.238,0,11.343,5.104,11.343,11.346v96.37H119.055z"/>
<path fill="#008B8B" d="M119.055,106.319c0,7.003-5.733,12.735-12.737,12.735H66.075c-7.007,0-8.684-4.053-3.733-9.007 l47.704-47.703c4.954-4.954,9.009-3.279,9.009,3.73V106.319z"/>
</svg>